<mxfile host="app.diagrams.net" modified="2024-05-06T04:20:36.107Z" agent="Mozilla/5.0 (Macintosh; Intel Mac OS X 10.15; rv:125.0) Gecko/20100101 Firefox/125.0" version="21.2.9" etag="56ZAPb3_KDW-_UW9RTY2" type="github">
  <diagram name="Page-1" id="DiTgrYH2Gpw5L4TcvVx9">
    <mxGraphModel>
      <root>
        <mxCell id="0" />
        <mxCell id="1" parent="0" />
      </root>
    </mxGraphModel>
  </diagram>
</mxfile>
